<svg width="55" height="9" viewBox="0 0 55 9" fill="none" xmlns="http://www.w3.org/2000/svg">
<path d="M13.582 1.33789C13.582 1.41211 13.5645 1.48633 13.5293 1.56055L10.7109 7.51953C10.5391 7.87109 10.2695 8.04688 9.90234 8.04688C9.54297 8.04688 9.28711 7.88281 9.13477 7.55469L6.88477 2.74414L4.55859 7.56641C4.41797 7.85156 4.16406 7.99414 3.79688 7.99414C3.40234 7.99414 3.13477 7.8418 2.99414 7.53711L0.1875 1.56055C0.152344 1.48633 0.134766 1.41992 0.134766 1.36133C0.134766 1.20508 0.214844 1.08203 0.375 0.992188C0.511719 0.914063 0.664062 0.875 0.832031 0.875C1.11328 0.875 1.30078 0.972656 1.39453 1.16797L3.79688 6.27148L6.08203 1.36719C6.24609 1.01562 6.50781 0.839844 6.86719 0.839844C6.99219 0.839844 7.13477 0.890625 7.29492 0.992188C7.45117 1.08984 7.55859 1.19922 7.61719 1.32031L9.9375 6.27148L12.3047 1.17383C12.3945 0.978516 12.5977 0.880859 12.9141 0.880859C13.0742 0.880859 13.2188 0.916016 13.3477 0.986328C13.5039 1.07227 13.582 1.18945 13.582 1.33789ZM27.5039 3.60547C27.5039 4.32031 27.1484 4.83594 26.4375 5.15234C25.8867 5.38281 25.2227 5.49805 24.4453 5.49805H19.9277V7.58398C19.9277 7.80664 19.834 7.94727 19.6465 8.00586C19.5957 8.0332 19.4082 8.04688 19.084 8.04688C18.7793 8.04688 18.627 7.89258 18.627 7.58398V1.36719C18.627 1.0625 18.7793 0.910156 19.084 0.910156H24.5039C25.2383 0.910156 25.8613 1.01172 26.373 1.21484C27.127 1.49609 27.5039 1.92383 27.5039 2.49805V3.60547ZM26.2148 3.56445V2.5918C26.2148 2.17773 25.6484 1.9707 24.5156 1.9707H19.9277V4.43164H24.5215C25.6504 4.43164 26.2148 4.14258 26.2148 3.56445ZM31.6582 3.01367C31.6582 3.32227 31.4746 3.47656 31.1074 3.47656C31.0566 3.47656 30.9824 3.47461 30.8848 3.4707C30.791 3.46289 30.7188 3.45898 30.668 3.45898C29.7188 3.45898 29.2441 3.69531 29.2441 4.16797V7.58398C29.2441 7.81055 29.1582 7.95312 28.9863 8.01172C28.916 8.03516 28.7363 8.04688 28.4473 8.04688C28.1543 8.04688 28.0078 7.89062 28.0078 7.57812V4.16797C28.0078 3.43359 28.3848 2.93555 29.1387 2.67383C29.5996 2.50977 30.2852 2.42773 31.1953 2.42773C31.5039 2.42773 31.6582 2.62305 31.6582 3.01367ZM39.7266 5.33398C39.7266 5.67383 39.6113 5.84375 39.3809 5.84375H33.2344V5.88477C33.2344 6.41602 33.5469 6.75781 34.1719 6.91016C34.3086 6.94141 34.5059 6.9668 34.7637 6.98633C35.0254 7.00195 35.3574 7.00977 35.7598 7.00977C36.0645 7.00977 36.2168 7.20117 36.2168 7.58398C36.2168 7.89258 36.0645 8.04688 35.7598 8.04688C35.3457 8.04688 35.0059 8.04297 34.7402 8.03516C34.4785 8.03125 34.2793 8.02148 34.1426 8.00586C33.4629 7.93555 32.9629 7.77539 32.6426 7.52539C32.1855 7.16992 31.957 6.75195 31.957 6.27148V4.20312C31.957 3.55469 32.3086 3.07422 33.0117 2.76172C33.4922 2.53516 34.1289 2.42188 34.9219 2.42188H37.2305C37.8789 2.42188 38.416 2.5293 38.8418 2.74414C39.4316 3.01758 39.7266 3.42969 39.7266 3.98047V5.33398ZM38.5195 4.77148V4.08008C38.5195 3.6582 37.6816 3.44727 36.0059 3.44727C35.0176 3.44727 34.3398 3.48242 33.9727 3.55273C33.4531 3.65039 33.1934 3.8418 33.1934 4.12695V4.77148H38.5195ZM47.3438 6.44141C47.3438 7.51172 46.5273 8.04688 44.8945 8.04688H40.7109C40.4062 8.04688 40.2539 7.89258 40.2539 7.58398C40.2539 7.20117 40.4062 7.00977 40.7109 7.00977H44.9004C45.6738 7.00977 46.0605 6.82031 46.0605 6.44141V6.23047C46.0605 5.89062 45.709 5.7207 45.0059 5.7207H42.9961C41.1484 5.7207 40.2246 5.20508 40.2246 4.17383V3.86914C40.2246 3.18555 40.6895 2.74805 41.6191 2.55664C41.8066 2.51367 42.0801 2.48242 42.4395 2.46289C42.8027 2.43945 43.2578 2.42773 43.8047 2.42773C44.1133 2.42773 44.2676 2.62305 44.2676 3.01367C44.2676 3.31836 44.1133 3.4707 43.8047 3.4707H42.9141C42.4492 3.4707 42.1699 3.47656 42.0762 3.48828C41.666 3.54297 41.4609 3.66992 41.4609 3.86914V4.16211C41.4609 4.49805 41.9746 4.66602 43.002 4.66602H45.0527C46.5801 4.66602 47.3438 5.17188 47.3438 6.18359V6.44141ZM54.9609 6.44141C54.9609 7.51172 54.1445 8.04688 52.5117 8.04688H48.3281C48.0234 8.04688 47.8711 7.89258 47.8711 7.58398C47.8711 7.20117 48.0234 7.00977 48.3281 7.00977H52.5176C53.291 7.00977 53.6777 6.82031 53.6777 6.44141V6.23047C53.6777 5.89062 53.3262 5.7207 52.623 5.7207H50.6133C48.7656 5.7207 47.8418 5.20508 47.8418 4.17383V3.86914C47.8418 3.18555 48.3066 2.74805 49.2363 2.55664C49.4238 2.51367 49.6973 2.48242 50.0566 2.46289C50.4199 2.43945 50.875 2.42773 51.4219 2.42773C51.7305 2.42773 51.8848 2.62305 51.8848 3.01367C51.8848 3.31836 51.7305 3.4707 51.4219 3.4707H50.5312C50.0664 3.4707 49.7871 3.47656 49.6934 3.48828C49.2832 3.54297 49.0781 3.66992 49.0781 3.86914V4.16211C49.0781 4.49805 49.5918 4.66602 50.6191 4.66602H52.6699C54.1973 4.66602 54.9609 5.17188 54.9609 6.18359V6.44141Z" fill="black"/>
<path d="M15.6797 1.66016C15.6797 1.86328 15.5938 2.02344 15.4219 2.14062C15.2734 2.24219 15.0918 2.29297 14.877 2.29297C14.6621 2.29297 14.4805 2.24219 14.332 2.14062C14.1602 2.02344 14.0742 1.86328 14.0742 1.66016C14.0742 1.45703 14.1602 1.29688 14.332 1.17969C14.4805 1.07813 14.6621 1.02734 14.877 1.02734C15.0918 1.02734 15.2734 1.07813 15.4219 1.17969C15.5938 1.29688 15.6797 1.45703 15.6797 1.66016ZM15.5098 7.58398C15.5098 7.89258 15.3555 8.04688 15.0469 8.04688C14.7461 8.04688 14.5703 8.0332 14.5195 8.00586C14.3594 7.94727 14.2793 7.80664 14.2793 7.58398V2.86719C14.2793 2.5625 14.4336 2.41016 14.7422 2.41016C15.0391 2.41016 15.2129 2.42383 15.2637 2.45117C15.4277 2.50977 15.5098 2.64844 15.5098 2.86719V7.58398ZM18.0117 1.66016C18.0117 1.86328 17.9258 2.02344 17.7539 2.14062C17.6055 2.24219 17.4238 2.29297 17.209 2.29297C16.9941 2.29297 16.8125 2.24219 16.6641 2.14062C16.4922 2.02344 16.4062 1.86328 16.4062 1.66016C16.4062 1.45703 16.4922 1.29688 16.6641 1.17969C16.8125 1.07813 16.9941 1.02734 17.209 1.02734C17.4238 1.02734 17.6055 1.07813 17.7539 1.17969C17.9258 1.29688 18.0117 1.45703 18.0117 1.66016ZM17.8418 7.58398C17.8418 7.89258 17.6875 8.04688 17.3789 8.04688C17.0781 8.04688 16.9023 8.0332 16.8516 8.00586C16.6914 7.94727 16.6113 7.80664 16.6113 7.58398V2.86719C16.6113 2.5625 16.7656 2.41016 17.0742 2.41016C17.3711 2.41016 17.5449 2.42383 17.5957 2.45117C17.7598 2.50977 17.8418 2.64844 17.8418 2.86719V7.58398Z" fill="#E4002B"/>
</svg>
