<?xml version="1.0" encoding="UTF-8"?>
<svg xmlns="http://www.w3.org/2000/svg" width="369" height="203" viewBox="0 0 369 203">
  <g id="Groupe_80" data-name="Groupe 80" transform="translate(-407)">
    <ellipse id="Ellipse_11" data-name="Ellipse 11" cx="184.5" cy="101.5" rx="184.5" ry="101.5" transform="translate(407)" fill="#fff"></ellipse>
    <g id="Composant_3_1" data-name="Composant 3 – 1" transform="translate(450.777 54)">
      <path id="Tracé_1" data-name="Tracé 1" d="M-127.793-79.642c3.6-.38,4.4.244,4.93,3.747.823,5.406,1.525,10.851,3.762,15.911,1.465,3.313,2.5,3.584,5.284,1.284,5.154-4.264,8.812-9.814,12.709-15.149.974-1.333,1.9-2.7,2.844-4.058,1.151-1.652,2.639-2.421,4.489-1.273,1.716,1.066,1.649,2.643.892,4.355-.738,1.669-1.86,7.463-2.211,8.592a35.742,35.742,0,0,0-1.548,8.043,64.4,64.4,0,0,0-.008,16.55,67.149,67.149,0,0,0,6.23,23.307C-85.544-7.729-77.457-.641-66.6,3.381A92.168,92.168,0,0,0-39.371,8.814c24.471,1.2,50.155-1.148,70.535-4.631,7.633-1.3,15.271-2.6,22.8-4.443C55.9-.737,77.995-5.055,87.07-7.314c.7-.173,1.4-.3,2.1-.45.611-.2,1.3-.569,1.3.584L77.495-2.733Q65.472.46,53.447,3.647C49.48,4.69,45.5,5.676,41.523,6.688c-67.384,14.59-95.149,8.281-95.483,7.871-3.257-.842-6.574-1.5-9.754-2.576-3.255-1.1-10.965-3.535-11.369-4.144C-80.267,5.155-104.022-8.02-104.991-45.83a83.136,83.136,0,0,1,.117-11.679c-3.89,3.433-7.142,7.83-12.916,7.071-5.977-.785-7.365-5.935-9.239-10.631-1.118.5-1.1,1.528-1.347,2.311-2.125,6.692-4.7,13.226-6.891,19.9-1.587,4.837-3.545,5.589-8.591,3.549l.507-2.157C-141.6-41.714-130.01-77.164-127.793-79.642Z" transform="translate(143.858 101.372)" fill="#004492"></path>
      <path id="Tracé_2" data-name="Tracé 2" d="M50.765-72.29c-2.013.284-2.715,1.156-2.69-1.409.041-4.1.565-4.443,4.048-4.668,1.444-.093,2.849-.893,2.735,1.608C54.68-72.845,54.284-72.284,50.765-72.29Z" transform="translate(70.986 100.925)" fill="#084895"></path>
      <path id="Tracé_3" data-name="Tracé 3" d="M57.967,37.875A251.856,251.856,0,0,1,1.774,41.61c-10.35-.511-20.544-2.347-30.068-6.774A33.846,33.846,0,0,1-44.935,18.7c.158-.37-.36-1.551.8-.731.971.685,1.649,1.76,2.846,2.154,6.405,6.057,14.257,9.534,22.469,12.182,10.959,3.533,22.288,4.932,33.767,5.8,10.744.808,21.415.189,32.113-.191,3.383-.12,6.753-.7,10.158-.638C57.871,36.976,58.03,37.287,57.967,37.875Z" transform="translate(106.299 64.381)" fill="#009ee2"></path>
      <path id="Tracé_4" data-name="Tracé 4" d="M55.3,16.928c-.078-4.1,2.331-7.069,5.887-7.157.856-.021,2.115-.041,2.164,1.089.063,1.456-.927.873-1.9.793-2.2-.181-3.649,1.153-4.219,3.229-.423,1.543.537,2.458,1.863,3.06a1.506,1.506,0,0,0,1.948-.371c.5-.649.049-.991-.592-1.349-.6-.337-.624-1.361-.051-1.454,1.174-.192,2.842-1.351,3.381.949-.573,2.019-1.1,4.151-3.764,4.218A4.684,4.684,0,0,1,55.3,16.928Z" transform="translate(68.243 67.389)" fill="#05a4e4"></path>
      <path id="Tracé_5" data-name="Tracé 5" d="M75.9,16.191c.712-.855.558-1.921.739-2.914.7-3.822,1.327-4.255,5.226-3.827.7.076,1.554-.081,1.473,1.019-.065.889-.818.726-1.4.756-.612.03-1.228.042-1.84.015-1.138-.05-1.379.854-1.486,1.606-.177,1.243.908.705,1.489.849.765.189,1.995-.5,2,1.082-.987,1.151-2.542-.139-3.571.831l-.1.064c-1.406,1.839-.684,2.417,1.343,2.411.667,0,1.859-.53,1.927.672.076,1.332-1.128,1.109-2.022,1.151C75.825,20.092,75.825,20.1,75.9,16.191Z" transform="translate(60.427 67.56)" fill="#05a4e4"></path>
      <path id="Tracé_6" data-name="Tracé 6" d="M-15.4,15.076c-.214-1.3-.461-2.6-.626-3.906-.07-.556-.305-1.34.593-1.459.695-.092,1.089.372,1.247,1.067.334,1.468.708,2.928,1.213,4.992,1.194-1.9,2.122-3.268,2.936-4.705.424-.746.893-1.73,1.747-1.3,1.11.558.123,1.4-.227,2.043-.823,1.52-1.7,3.01-2.554,4.513-1.145.964-1.292,2.734-2.747,3.5Z" transform="translate(95.354 67.429)" fill="#03a4e4"></path>
      <path id="Tracé_7" data-name="Tracé 7" d="M95.541,17.7c1.7.2,2.507-.166,1.179-1.871-.5-.648-1.024-1.286-1.53-1.933a2.073,2.073,0,0,1-.213-2.784A3.475,3.475,0,0,1,97.786,9.5a1.593,1.593,0,0,1,1.748,1.385c0,.473-.71.88-1.662.731-1.553-.243-1.622.538-.627,1.641.952,1.054,2,2.092,2.185,3.626-.809,1.838-2.1,3.056-4.221,2.836-.776-.08-1.957-.5-1.866-1.325C93.483,17.119,94.621,17.4,95.541,17.7Z" transform="translate(53.801 67.491)" fill="#06a5e4"></path>
      <path id="Tracé_8" data-name="Tracé 8" d="M23.767,17.506c1.007-2.36.006-4.332-1.181-6.286-.292-.48-.884-1.084-.082-1.563a.952.952,0,0,1,1.349.381c1.535,3.672,3.013,1.815,4.557.017a1.166,1.166,0,0,1,1.611-.213c-.43,2.242-3.322,2.9-3.639,5.2-.955.752-.265,1.981-.759,2.772-.442.707.038,2.437-1.557,1.991C22.658,19.413,24.036,18.268,23.767,17.506Z" transform="translate(80.848 67.482)" fill="#04a5e4"></path>
      <path id="Tracé_9" data-name="Tracé 9" d="M257.641-74.977c-.566.79-12.34,11.936-17.334,16.96-1.812,1.823-3.438,3.829-5.132,5.732-1.387-1.257-1.442-2.026-.95-3.159,2.8-6.455,11.368-24.788,10.616-28.106l-2.523-3.138-1.3,3.1-8.884,26.213c-5.919-9.489-13.975-16.548-21.38-24.2h0c-9.346-7.943-18.833-15.711-28.727-22.97-4.99-3.027-9.639-6.616-15-9.031-3.718-1.674-5.1-1.411-6.786,1.394-2.466,4.105-2.358,4.994.927,7.6,4.84,2.8,8.3,3.883,12.281,6.131,16.414,9.262,45.417,28.735,49.413,35.1L219.46-66.2c-20.177-14.362-74.051-38.657-75.959-39.322-2.069-.72-3.605-.328-4.813,1.468-.469,1.56-.8,3.152-1.17,4.734-1.27,5.484.261,22.916.674,26.184,1.047,5.348,1.8,10.753,3.132,16.046,1.37,5.045,2.348,10.207,4.17,15.112,1.484,3.995,2.069,8.413,5.173,11.7,2.048,3.038,3.705,6.005,8.449,5.842a216.812,216.812,0,0,0,30.859-3.644c5.517-.99,30.9-7.725,37.582-11.3,2.945-1.853,5.816-3.783,7.492-6.995.5-1.208.269-2.522.544-3.762,2.479-2.079,32.329-26.216,33.623-28.724C264.412-79.974,260.522-78.995,257.641-74.977ZM223.452-42.553c-4.44,2.357-9.328,3.021-14.209,3.61a124.554,124.554,0,0,1-31.447-.65c-8.059-1.071-16.169-2.327-21.79-9.241-5.08-6.249-7.536-13.579-8.423-21.452-.364-3.229.216-14.882,1.164-17.3,1.548-3.956,3.293-4.944,7.361-3.7a136.782,136.782,0,0,1,20,8.06c6.131,3,12.273,6.041,18.475,8.929.458.213.884.493,1.324.743,10.217,5.154,19.981,10.977,28.185,19.1a15.067,15.067,0,0,1,1.766,2.141C228.839-48.011,228.1-45.019,223.452-42.553Z" transform="translate(37.214 114.612)" fill="#009de2"></path>
      <path id="Tracé_10" data-name="Tracé 10" d="M8.1-27.695c-1.464.665-3.023.233-4.528.4-1.719.188-1.792-5.672-1.6-7.443.282-2.533.761-5.044.988-7.588.506-3.254.267-6.726,2.747-9.4,3.939-5.754,9.964-6.363,16.5-6.755-.373,2.185-.706,4.128-1.038,6.07-1.114,1.251-2.78.659-4.094,1.236-5.172.592-5.474,4.582-5.907,8.48-.5,3.889-1.158,7.749-1.838,11.605C9.125-29.908,9.176-28.585,8.1-27.695Z" transform="translate(88.516 93.302)" fill="#014493"></path>
      <path id="Tracé_11" data-name="Tracé 11" d="M45.578-36.353c-.376,1.873-.563,2.708-1.061,5.619-.628,3.44-1.484,3.869-4.18,3.435-.89-.143-1.784-.253-2.676-.378-1.194-1.11-.739-2.427-.419-3.691.925-3.649,3.607-22.531,4.393-25.223.631-2.164,2.22-1.836,3.532-1.85,4.04-.045,3.788-.368,3.131,3.528C47.259-48.75,46.472-42.543,45.578-36.353Z" transform="translate(75.235 93.296)" fill="#014493"></path>
      <path id="Tracé_12" data-name="Tracé 12" d="M8.9,10.394a4.953,4.953,0,0,0-5.45.527A6.274,6.274,0,0,0,.774,14.514c.081,4.314,1.891,6,5.315,5.18,2.3-.551,3.756-1.218,4.749-3.942C10.943,13.69,11.147,11.543,8.9,10.394Zm.079,4.268a3.781,3.781,0,0,1-4.064,3.406c-1.6-.051-2.461-1.332-2.234-3.323.282-2.13,1.947-3.152,4.038-3.1A2.33,2.33,0,0,1,8.978,14.662Z" transform="translate(88.945 67.373)" fill="#04a2e3"></path>
      <path id="Tracé_13" data-name="Tracé 13" d="M44.185,18.409c-.107-.7-.125-1.421-.181-2.133-1.127-2.026-.7-4.584-2.112-6.8-.868,1.39-1.544,2.507-2.255,3.6s-1.458,2.164-2.189,3.245c-.058.2-.122.39-.175.587-.261.984-1.967,1.937-.835,2.809.993.764,1.407-1.041,2.174-1.536,1.343-.868,2.869-1.625,3.689.712.218.621.62,1.122,1.327.977C44.465,19.695,44.28,19.03,44.185,18.409Zm-3.468-2.25c-.409,0-.881-.082-.72-.623s.368-1.243,1.131-1.233c.574.008.355.583.463.793C41.624,15.829,41.33,16.158,40.716,16.159Z" transform="translate(75.55 67.5)" fill="#04a3e3"></path>
      <path id="Tracé_14" data-name="Tracé 14" d="M-32.225-57.4c-5.92-2.028-16.969-1.293-20.614,6.335-2.169,5.385-3.534,10.887-2.427,16.746,1.762,4.577,5.262,6.7,10,6.9C-32.53-26.129-29.576-31.34-28-34.288a32.3,32.3,0,0,0,3.167-10.3C-24.629-46.659-24.95-55.017-32.225-57.4Zm.19,13.219a29.416,29.416,0,0,1-.81,4.239,9.635,9.635,0,0,1-13.666,5.793,4.765,4.765,0,0,1-2.182-2.108c-3.4-6.659,2.122-16,9.48-16.042C-33.561-52.326-31.281-49.767-32.035-44.18Z" transform="translate(110.371 93.257)" fill="#014493"></path>
      <path id="Tracé_15" data-name="Tracé 15" d="M93.175-52.473c-.81-2.611-2.236-3.412-4.143-4.461-8.1-4.456-19.466-.644-23.075,7.835a27.9,27.9,0,0,0-1.849,13.957c1.44,4.3,4.34,6.9,8.889,7.463,7.454.916,13.956-.584,18.26-7.438C93.6-40.715,94.721-46.447,93.175-52.473ZM86.688-39.881c-1.7,5.615-8.649,8.316-13.85,5.458a4.6,4.6,0,0,1-2.062-2.208c-3.312-7.339,2.487-16.166,10.4-15.823,4.593.2,6.515,2.229,6.432,7.1A17.85,17.85,0,0,1,86.688-39.881Z" transform="translate(64.967 93.427)" fill="#004493"></path>
    </g>
  </g>
</svg>
